PathFileType	4	(X/Y/Z)	Walk6.trc
DataRate	CameraRate	NumFrames	NumMarkers	Units	OrigDataRate	OrigDataStartFrame	OrigNumFrames
200.000000	200.000000	8	58	mm	200.000000	292	562
Frame#	Times		RBHD		RASI		RACR1		RUA1		RFA1		RCAR		C7		LFA1		RElbow		RTH3		RTH2		LElbowM		RTB3		LTH2		RTH1		RTB1		RLFC		RMT1		RTB2		RMT5		RTB4		LACR1		LTH3		LElbow		RWRR		LTH4		LWRU		LPSI		RPSI		LTB1		T10		LWRR		LLFC		RWRU		LBHD		LTB3		LTB2		RFHD		LTH1		LTB4		LMT1		LFHD		RBack		LMMAL		RTH4		LASI		LCAL		LLMAL		CLAV		LCAR		LMT5		RLMAL		LToe		RToe		RMMAL		LUA1		RElbowM		RCAL
			X1	Y1	Z1	X2	Y2	Z2	X3	Y3	Z3	X4	Y4	Z4	X5	Y5	Z5	X6	Y6	Z6	X7	Y7	Z7	X8	Y8	Z8	X9	Y9	Z9	X10	Y10	Z10	X11	Y11	Z11	X12	Y12	Z12	X13	Y13	Z13	X14	Y14	Z14	X15	Y15	Z15	X16	Y16	Z16	X17	Y17	Z17	X18	Y18	Z18	X19	Y19	Z19	X20	Y20	Z20	X21	Y21	Z21	X22	Y22	Z22	X23	Y23	Z23	X24	Y24	Z24	X25	Y25	Z25	X26	Y26	Z26	X27	Y27	Z27	X28	Y28	Z28	X29	Y29	Z29	X30	Y30	Z30	X31	Y31	Z31	X32	Y32	Z32	X33	Y33	Z33	X34	Y34	Z34	X35	Y35	Z35	X36	Y36	Z36	X37	Y37	Z37	X38	Y38	Z38	X39	Y39	Z39	X40	Y40	Z40	X41	Y41	Z41	X42	Y42	Z42	X43	Y43	Z43	X44	Y44	Z44	X45	Y45	Z45	X46	Y46	Z46	X47	Y47	Z47	X48	Y48	Z48	X49	Y49	Z49	X50	Y50	Z50	X51	Y51	Z51	X52	Y52	Z52	X53	Y53	Z53	X54	Y54	Z54	X55	Y55	Z55	X56	Y56	Z56	X57	Y57	Z57	X58	Y58	Z58

292	1.46	-300.65	1561	381.12	-225.35	943.2	415.21	-251.25	1380.4	445.13	-303.41	1192.1	525.06	-330.12	925.25	571.9	-308.69	739.24	571.28	-325.65	1437.9	304.67	-263.69	990.46	-20.026	-360.76	1070.4	551.22	-198.19	557.23	426.38	-159.32	670.63	418.69	-392.89	1115	82.943	-183.9	179.71	312.41	-204.88	646.42	120.17	-248.3	736.28	465.17	-153.71	367.82	319.37	-176.55	457.65	407.1	-102.76	37.804	268.08	-170.82	270.8	389.74	-128.75	32.687	358.54	-166.59	275.68	317.69	-290.54	1434.5	126.52	-263.68	546.69	102.14	-366.37	1115.7	6.4235	-280.06	791.06	529.06	-277.19	635.3	93.071	-265.31	871.71	-15.817	-424.57	956.01	229.52	-416.88	961.44	334.81	-298.99	338.38	173.26	-427.57	1131.2	282.87	-198.48	896.36	24.168	-269.75	438.54	114.61	-349.57	794.66	565.94	-294.7	1579.8	244.15	-464.4	253.65	184.53	-401.72	324.22	115.88	-115.89	1598.5	359.41	-289.6	732.45	90.904	-382.79	297.12	179.79	-556.87	91.567	228.34	-113.98	1603	279.04	-392.43	1342	399.38	-569.64	225.65	245.88	-222.38	645.24	449.06	-261.45	939.63	113.97	-663.51	260.25	214.24	-606.21	247.52	163.74	-192.77	1355.3	280	-186.21	845.49	-24.286	-576.54	109.16	150.48	-249.45	80.5	355.77	-526.29	68.887	204.18	-48.728	32.874	289.64	-229.82	96.192	267.38	-327.59	1243.8	25.474	-389.5	1049.1	459.74	-304.36	34.973	316.79
293	1.465	-294.15	1562.6	381.42	-218.71	944.4	415.36	-244.24	1381.6	444.84	-294.91	1193.3	525.09	-319.06	926.52	572.43	-295.87	740.86	571.48	-319.4	1439.3	304.98	-260.04	991.46	-19.594	-351.47	1071.3	552.08	-195.88	557.43	426.45	-155.17	670.2	418.82	-388.22	1116.5	83.405	-183.71	179.77	312.38	-195.31	649.49	119.53	-243.66	736.96	465.18	-153.01	367.6	319.73	-175.16	457.58	407.37	-102.77	37.82	268.1	-169.86	270.52	389.7	-128.7	32.644	358.62	-165.78	275.59	317.82	-285.08	1436.1	126.67	-252.2	549.16	101.33	-361.9	1117.4	7.1815	-267.79	792.7	529.21	-267.37	637.27	92.795	-262.06	872.93	-15.716	-417.89	957.77	229.68	-410.77	963.07	335.21	-284.71	340.55	172.51	-421.33	1132.8	283.49	-195.22	896.96	24.71	-256.49	440.85	114.26	-337.35	795.77	566.33	-288.26	1581.3	244.3	-449.96	254.77	184.36	-387.55	326.28	115.64	-109.43	1599.6	359.77	-281.52	734.25	90.839	-368.15	298.72	179.24	-540.41	92.412	227.76	-107.54	1604.4	279.2	-385.5	1343.3	400.26	-554.77	226.15	245.95	-218.77	645.69	449.46	-255.1	941.11	114.06	-649.14	260.04	214.51	-591.55	248.03	163.94	-186.63	1356.9	279.9	-183.26	845.98	-23.555	-560.35	110.29	150.07	-249.37	80.571	355.84	-509.88	70.034	203.46	-48.644	32.748	289.63	-229.78	96.406	267.57	-322.78	1245.3	25.634	-380.55	1049.9	461.29	-304.37	35.059	316.8
294	1.47	-287.67	1564	381.67	-212.78	945.25	415.64	-237.28	1383.2	444.71	-286.03	1194.6	525.16	-307.72	927.82	572.94	-282.59	742.34	571.86	-312.96	1440.9	305.37	-256.58	992.48	-19.179	-341.82	1072.3	553.11	-193.59	557.7	426.83	-151.18	669.83	418.87	-383.8	1118.4	84.064	-183.53	179.8	312.44	-185.61	652.72	119.06	-239.1	737.81	465.35	-151.97	367.59	319.8	-173.98	457.42	407.84	-102.77	37.826	268.14	-169.16	270.32	389.82	-128.69	32.597	358.72	-165.18	275.55	317.86	-279.54	1437.4	126.7	-240.82	551.51	100.9	-357.92	1118.8	7.7833	-255.8	794.7	529.32	-257.64	639.33	92.345	-258.83	874	-15.514	-411.91	959.6	229.65	-404.62	964.43	335.39	-270.86	342.32	171.86	-414.77	1134	283.99	-192.18	897.72	25.188	-243.5	443.4	113.78	-324.53	796.72	566.72	-281.78	1583	244.49	-435.09	256.02	184	-373.81	328.42	115.49	-103.09	1600.8	359.81	-273.29	735.96	90.659	-353.43	300.48	178.55	-523.57	92.855	227.51	-100.95	1605.6	279.41	-378.98	1344.6	400.75	-539.66	226.38	246.09	-215.23	646.29	449.94	-248.95	942.99	114.32	-634.91	258.99	215	-577.02	248.15	164.13	-180.08	1358.2	279.73	-180.24	846.63	-22.764	-543.98	110.98	149.81	-249.25	80.622	355.91	-492.81	71.006	202.89	-48.556	32.556	289.66	-229.74	96.505	267.68	-318.39	1246.8	25.93	-371.74	1050.5	462.14	-304.36	35.096	316.8
295	1.475	-281.22	1565.5	381.72	-206.68	946.25	416	-230.39	1384.6	444.58	-277.56	1195.9	525.7	-296.57	929.01	573.48	-269.44	743.94	571.93	-306.74	1442.3	305.84	-253.1	993.74	-18.995	-332.02	1073.3	554.04	-190.71	557.8	427.26	-147.6	669.44	419.23	-379.18	1120	84.07	-183.37	179.8	312.52	-175.98	655.71	118.33	-234.25	738.5	465.44	-151.11	367.62	319.9	-172.5	457.45	408.18	-102.81	37.822	268.24	-168.63	270.17	390.24	-128.61	32.619	358.86	-164.88	275.51	317.93	-274.04	1438.8	126.86	-229.81	553.58	100.57	-353.71	1120.4	8.4397	-243.66	796.68	529.19	-247.9	641.35	92.087	-255.8	875.22	-15.253	-405.96	961.01	229.66	-398.37	966.34	335.39	-256.85	344.18	171.03	-408.36	1135.4	284.42	-189.1	898.55	25.543	-230.58	445.88	113.5	-311.98	797.81	567.06	-275.37	1584.7	244.64	-420.15	257.07	183.76	-360.07	330.16	115.41	-96.278	1602.1	360.12	-264.94	737.79	90.415	-339.14	302.01	177.87	-506.49	93.306	227.43	-94.533	1606.8	279.5	-372.52	1345.6	401.1	-524.03	226.47	246.05	-211.82	646.59	450.27	-242.7	944.85	114.6	-620.26	257.64	215.26	-562.23	247.74	164.21	-173.89	1359.8	279.51	-177.35	847.32	-22.133	-526.74	111.33	149.67	-249.19	80.644	355.93	-475.23	72.08	202.6	-48.511	32.464	289.72	-229.69	96.518	267.69	-314.06	1248.3	26.077	-363.31	1051.2	463.24	-304.29	35.07	316.65
296	1.48	-274.91	1566.8	381.82	-200.89	947.26	416.53	-223.73	1386	444.6	-269.38	1197.2	526	-285.24	930.32	573.89	-256.27	745.65	572.13	-300.53	1443.6	306.04	-249.69	994.98	-18.514	-322.46	1074	555.15	-188.59	557.89	427.47	-144.01	669.12	419.36	-375.25	1121.5	84.882	-183.39	179.83	312.81	-166.44	658.69	117.84	-228.85	739.39	465.23	-150.27	367.51	320.06	-171.33	457.43	408.35	-102.83	37.85	268.31	-168.16	270.16	390.71	-128.57	32.569	358.94	-164.66	275.44	318.06	-268.45	1440.1	126.95	-218.96	555.72	100.29	-349.51	1122	9.1263	-231.15	798.84	529.15	-238.16	643.29	91.703	-252.77	876.31	-15.135	-399.59	962.51	229.69	-391.49	967.8	335.56	-242.32	345.99	169.85	-401.52	1136.8	284.68	-186.06	899.52	26.103	-217.94	448.51	113.27	-299.32	799.16	567.62	-269.07	1586	244.7	-405.24	257.35	183.47	-346.1	331.82	115.22	-90.08	1603.2	360.17	-256.69	739.47	90.196	-324.93	303.13	177.67	-488.92	93.614	227.18	-88.045	1608	279.63	-366.26	1346.9	401.55	-508.75	226.1	246.31	-208.56	646.9	450.38	-236.55	946.64	115.03	-605.53	255.9	215.26	-547.21	246.82	164.56	-168.03	1361.3	279.39	-174.25	847.99	-21.75	-509.37	111.45	149.56	-249.23	80.587	356.05	-457.41	72.518	202.87	-48.46	32.457	289.92	-229.64	96.633	267.77	-309.8	1249.6	26.53	-354.96	1052.1	464.45	-304.33	35.15	316.54
297	1.485	-268.58	1568.3	382.11	-194.99	948.32	417.07	-217.28	1387.5	444.79	-261.2	1198.5	526.1	-274.19	931.49	574.32	-242.85	747.5	572.27	-294.25	1444.8	306.23	-245.86	996.07	-18.155	-312.83	1075.2	556.09	-186.49	558	428	-140.31	668.79	419.55	-371.12	1123.1	85.81	-183.38	179.83	312.96	-156.94	661.51	117.02	-224.88	740.3	465.17	-149.45	367.3	320.23	-170.14	457.37	408.54	-102.83	37.862	268.32	-167.36	270.13	390.96	-128.68	32.561	359.07	-164.32	275.37	318.35	-263.02	1441.3	127.19	-208.05	557.97	99.952	-345.79	1123.3	9.6026	-218.65	800.9	529.14	-228.67	645.27	91.508	-249.96	877.41	-14.953	-392.98	963.69	229.93	-385.18	968.85	335.31	-227.63	348.3	168.89	-395.48	1138	285.33	-183	900.26	26.426	-205.49	451.17	112.82	-286.69	800.09	568.15	-262.75	1587.3	244.96	-389.81	257.75	182.78	-332.22	333.46	114.97	-83.945	1604.4	360.2	-248.43	741.08	90.14	-310.29	304.52	177.31	-471.05	93.489	227.37	-81.703	1609.3	279.6	-359.56	1348.1	402.3	-493.14	225.45	246.58	-205.07	647.44	450.85	-230.07	948.36	115.65	-590.96	253.74	215.41	-531.97	245.64	164.73	-161.86	1362.6	279.36	-171.4	848.58	-21.26	-491.74	111.22	149.79	-249.26	80.561	356.12	-439.11	73.085	203.11	-48.428	32.224	289.93	-229.57	96.8	267.81	-305.64	1251	26.727	-346.18	1052.7	465.87	-304.36	35.276	316.53
298	1.49	-262.46	1569.8	382.17	-188.73	949.3	417.58	-210.73	1388.8	444.7	-252.98	1199.7	526.16	-262.81	932.93	574.76	-229.23	749.45	572.31	-288.15	1446.1	306.36	-242.44	997.13	-17.808	-303.48	1076.2	556.9	-184.37	558.12	428.2	-137.4	667.93	419.57	-366.88	1124.4	86.879	-183.17	179.62	313.03	-147.24	664.35	116.26	-220.71	740.66	465.47	-148.87	367.26	320.43	-169.1	457.45	408.86	-102.87	37.857	268.38	-166.72	270.03	391.08	-128.71	32.475	359.1	-163.62	275.22	318.51	-257.57	1442.7	127.42	-197.23	560.2	99.577	-341.72	1124.7	10.338	-206.59	803.06	529.22	-218.93	647.18	91.148	-247.22	878.39	-14.831	-386.06	965.01	230.14	-378.89	969.91	335.27	-213.59	350.34	168.24	-389.35	1138.9	285.77	-180.13	901.14	26.702	-193.01	453.77	112.64	-273.82	801.59	568.6	-256.52	1588.7	244.94	-374.44	257.98	182.73	-318.07	334.93	114.98	-77.235	1605.7	360.41	-240.6	742.58	89.7	-295.46	305.94	176.85	-453.09	93.079	227.73	-75.385	1610.5	279.56	-352.97	1349.1	402.68	-477.77	224.72	246.79	-201.08	647.74	450.81	-223.64	950.11	116.19	-575.86	251.03	215.53	-516.56	244.05	164.79	-155.66	1364.1	279.2	-168.51	849.51	-20.964	-473.69	110.64	150.13	-249.27	80.617	356.13	-420.48	73.189	203.56	-48.389	32.045	289.95	-229.54	96.878	267.86	-301.51	1252.3	26.943	-337.54	1053.4	466.99	-304.35	35.329	316.51
299	1.495	-256.1	1571	382.1	-182.54	950.19	418.03	-204.28	1390.1	444.7	-244.59	1201	526.67	-251.38	934.54	575.06	-215.56	751.45	572.45	-281.97	1447.2	306.67	-239.37	998.3	-17.429	-294.13	1077.3	558.03	-182.12	558.27	428.5	-132.88	667.76	419.92	-362.31	1125.9	87.85	-182.61	179.54	313.08	-138.13	667.25	115.63	-216.26	741.1	465.76	-148.44	367.2	320.7	-167.86	458.43	410.35	-102.84	37.85	268.42	-166.25	269.81	391.26	-128.69	32.456	359.14	-162.56	274.62	318.31	-252.12	1444	127.41	-186.59	562.35	99.365	-337.9	1126.1	11.103	-193.91	805.48	529.11	-209.57	649.08	90.806	-244.19	879.42	-14.433	-379.4	966.3	230.19	-373.02	971.21	335.13	-199.59	352.59	167.86	-383.12	1140.1	285.87	-176.94	902	26.91	-180.59	456.36	112.6	-260.97	803.18	569.41	-250.13	1589.9	244.75	-359.2	258.47	182.56	-304.14	335.89	115.06	-71.299	1606.7	360.12	-233.4	743.9	89.044	-280.2	307.12	176.46	-434.68	92.634	227.93	-69.147	1611.6	279.49	-346.54	1349.9	403.05	-461.98	223.7	246.97	-197.81	648.02	451.2	-216.87	951.69	116.48	-560.77	248.05	215.73	-501	242.22	164.96	-149.41	1365.3	279.24	-165.71	850.09	-20.601	-455.66	109.68	150.29	-249.25	80.691	356.08	-401.5	73.407	203.82	-48.295	31.944	290.03	-229.44	96.947	267.84	-297.55	1253.7	27.159	-329.01	1054.1	468.06	-304.29	35.435	316.42
